<?xml version="1.0" encoding="utf-8"?>
<svg version="1.1" xmlns:xlink="http://www.w3.org/1999/xlink" width="29px" height="21px" xmlns="http://www.w3.org/2000/svg">
  <g transform="matrix(1 0 0 1 -51 -116 )">
    <path d="M 20.006727430555557 15.688144329896907  C 20.47243923611111 15.1159793814433  20.70529513888889 14.427835051546392  20.70529513888889 13.623711340206187  C 20.70529513888889 13.015463917525773  20.562644675925927 12.466494845360822  20.27734375 11.97680412371134  C 19.992042824074076 11.487113402061855  19.627025462962965 11.1340206185567  19.182291666666668 10.917525773195875  C 19.123553240740744 11.381443298969074  19.02705439814815 11.855670103092784  18.89279513888889 12.34020618556701  C 18.834056712962965 12.587628865979381  18.718677662037038 12.783505154639174  18.54665798611111 12.927835051546392  C 18.374638310185187 13.072164948453608  18.187934027777775 13.144329896907216  17.98654513888889 13.144329896907216  C 17.885850694444443 13.144329896907216  17.78515625 13.128865979381443  17.684461805555557 13.097938144329897  C 17.424334490740744 12.994845360824742  17.23553240740741 12.796391752577321  17.118055555555557 12.502577319587628  C 17.000578703703702 12.208762886597937  16.983796296296298 11.907216494845361  17.067708333333332 11.597938144329898  C 17.26070601851852 10.865979381443298  17.35720486111111 10.128865979381443  17.35720486111111 9.386597938144329  C 17.35720486111111 8.118556701030927  17.10127314814815 6.945876288659792  16.589409722222225 5.868556701030928  C 16.077546296296298 4.791237113402061  15.381076388888888 3.9381443298969048  14.5 3.3092783505154637  C 13.618923611111112 2.6804123711340204  12.66232638888889 2.3659793814433  11.630208333333334 2.3659793814433  C 10.505787037037038 2.3659793814433  9.46947337962963 2.742268041237113  8.521267361111112 3.4948453608247414  C 7.5730613425925934 4.247422680412368  6.872395833333333 5.2474226804123685  6.419270833333333 6.494845360824742  C 7.325520833333334 6.783505154639174  8.114293981481483 7.329896907216495  8.785590277777779 8.1340206185567  C 8.97019675925926 8.371134020618555  9.0625 8.654639175257731  9.0625 8.984536082474227  C 9.0625 9.31443298969072  8.97019675925926 9.592783505154637  8.785590277777779 9.81958762886598  C 8.600983796296296 10.04639175257732  8.374421296296296 10.15979381443299  8.105902777777779 10.15979381443299  C 7.8373842592592595 10.15979381443299  7.606626157407408 10.04639175257732  7.413628472222222 9.81958762886598  C 6.784288194444444 9.04639175257732  6.029079861111111 8.65979381443299  5.148003472222222 8.65979381443299  C 4.25853587962963 8.65979381443299  3.4991319444444446 9.04381443298969  2.8697916666666665 9.811855670103093  C 2.240451388888889 10.579896907216494  1.92578125 11.510309278350514  1.92578125 12.603092783505154  C 1.92578125 13.695876288659791  2.240451388888889 14.626288659793813  2.8697916666666665 15.394329896907218  C 3.4991319444444446 16.162371134020617  4.25853587962963 16.546391752577318  5.148003472222222 16.546391752577318  L 18.313802083333332 16.546391752577318  C 18.976707175925927 16.546391752577318  19.541015625 16.260309278350515  20.006727430555557 15.688144329896907  Z M 21.66818576388889 10.306701030927837  C 22.310112847222225 11.270618556701027  22.63107638888889 12.376288659793813  22.63107638888889 13.623711340206187  C 22.63107638888889 15.08762886597938  22.209418402777775 16.33505154639175  21.366102430555557 17.3659793814433  C 20.522786458333332 18.396907216494846  19.50535300925926 18.91237113402062  18.313802083333332 19  L 5.148003472222222 19  C 3.7298900462962967 18.91237113402062  2.5173611111111116 18.29639175257732  1.5104166666666667 17.064432989690722  C 0.5034722222222222 15.832474226804123  0 14.345360824742267  0 12.603092783505154  C 0 11.025773195876289  0.4195601851851851 9.649484536082475  1.2586805555555556 8.474226804123711  C 2.097800925925926 7.298969072164946  3.142505787037037 6.597938144329895  4.392795138888889 6.371134020618557  C 4.913049768518519 4.47422680412371  5.840277777777779 2.938144329896906  7.174479166666667 1.7628865979381452  C 8.508680555555555 0.5876288659793817  9.993923611111112 0  11.630208333333334 0  C 13.602141203703704 0  15.316044560185187 0.8170103092783499  16.771918402777775 2.451030927835052  C 18.22779224537037 4.08505154639175  19.05222800925926 6.092783505154639  19.245225694444443 8.474226804123711  C 20.218605324074076 8.731958762886597  21.026258680555557 9.342783505154639  21.66818576388889 10.306701030927837  Z M 24.55685763888889 8.706185567010309  C 25.37080439814815 10.170103092783505  25.777777777777775 11.809278350515465  25.777777777777775 13.623711340206187  C 25.777777777777775 15.427835051546388  25.37080439814815 17.072164948453608  24.55685763888889 18.556701030927833  C 24.363859953703702 18.896907216494846  24.095341435185187 19.067010309278352  23.751302083333332 19.067010309278352  C 23.549913194444446 19.067010309278352  23.36950231481482 19.000000000000004  23.210069444444443 18.8659793814433  C 22.991898148148152 18.690721649484537  22.857638888888893 18.440721649484537  22.807291666666668 18.1159793814433  C 22.756944444444446 17.79123711340206  22.80729166666667 17.49484536082474  22.958333333333332 17.22680412371134  C 23.554108796296298 16.15463917525773  23.851996527777775 14.95360824742268  23.851996527777775 13.623711340206187  C 23.851996527777775 12.29381443298969  23.554108796296298 11.092783505154637  22.958333333333332 10.02061855670103  C 22.80729166666667 9.75257731958763  22.756944444444446 9.458762886597937  22.807291666666668 9.139175257731958  C 22.857638888888893 8.819587628865978  22.991898148148152 8.56701030927835  23.210069444444443 8.381443298969073  C 23.428240740740744 8.195876288659793  23.669487847222225 8.136597938144327  23.93381076388889 8.203608247422682  C 24.198133680555557 8.270618556701029  24.405815972222225 8.438144329896907  24.55685763888889 8.706185567010309  Z M 27.313368055555557 6.788659793814432  C 28.437789351851855 8.829896907216494  29 11.10824742268041  29 13.623711340206187  C 29 16.139175257731956  28.437789351851855 18.422680412371133  27.313368055555557 20.47422680412371  C 27.120370370370374 20.824742268041238  26.851851851851855 21  26.5078125 21  C 26.31481481481482 21  26.138599537037038 20.932989690721648  25.979166666666668 20.79896907216495  C 25.76099537037037 20.61340206185567  25.624638310185187 20.360824742268044  25.57009548611111 20.04123711340206  C 25.515552662037038 19.721649484536083  25.563802083333336 19.427835051546392  25.71484375 19.15979381443299  C 26.62109375 17.469072164948454  27.07421875 15.623711340206185  27.07421875 13.623711340206187  C 27.07421875 11.613402061855671  26.62109375 9.77319587628866  25.71484375 8.103092783505154  C 25.563802083333336 7.835051546391753  25.515552662037038 7.538659793814432  25.57009548611111 7.213917525773196  C 25.624638310185187 6.889175257731957  25.76099537037037 6.639175257731958  25.979166666666668 6.463917525773196  C 26.197337962962965 6.278350515463918  26.43648726851852 6.216494845360824  26.696614583333332 6.278350515463918  C 26.956741898148152 6.340206185567011  27.16232638888889 6.510309278350515  27.313368055555557 6.788659793814432  Z " fill-rule="nonzero" fill="#ffffff" stroke="none" transform="matrix(1 0 0 1 51 116 )" />
  </g>
</svg>