<?xml version="1.0" encoding="utf-8"?>
<svg version="1.1" xmlns:xlink="http://www.w3.org/1999/xlink" width="24px" height="23px" xmlns="http://www.w3.org/2000/svg">
  <g transform="matrix(1 0 0 1 -369 -114 )">
    <path d="M 4.109375 11.724609375  L 8.046875 11.724609375  L 8.046875 13.641276041666664  L 4.109375 13.641276041666664  L 4.109375 11.724609375  Z M 4.109375 7.90625  L 8.046875 7.90625  L 8.046875 9.807942708333332  L 4.109375 9.807942708333332  L 4.109375 7.90625  Z M 14.5625 15.557942708333336  L 19.890625 15.557942708333336  L 19.890625 17.474609375  L 14.5625 17.474609375  L 14.5625 15.557942708333336  Z M 9.390625 11.724609375  L 19.890625 11.724609375  L 19.890625 13.641276041666664  L 9.390625 13.641276041666664  L 9.390625 11.724609375  Z M 9.390625 8  L 19.890625 8  L 19.890625 10  L 9.390625 10  L 9.390625 8  Z M 21.90625 20.993489583333332  C 21.96875 20.93359375  22 20.863715277777775  22 20.783854166666668  L 22 2.2161458333333326  C 22 2.136284722222219  21.96875 2.06640625  21.90625 2.0065104166666674  C 21.84375 1.9466145833333326  21.770833333333336 1.9166666666666674  21.6875 1.9166666666666674  L 21.1875 1.9166666666666674  L 15.28125 5.75  L 12 3.189453125  L 8.71875 5.75  L 2.8125 1.9166666666666674  L 2.3125 1.9166666666666674  C 2.229166666666667 1.9166666666666674  2.15625 1.9466145833333326  2.09375 2.0065104166666674  C 2.03125 2.06640625  2 2.136284722222219  2 2.2161458333333326  L 2 20.783854166666668  C 2 20.863715277777775  2.03125 20.93359375  2.09375 20.993489583333332  C 2.15625 21.053385416666668  2.229166666666667 21.083333333333332  2.3125 21  L 21.6875 21  C 21.770833333333336 21.083333333333332  21.84375 21.053385416666668  21.90625 20.993489583333332  Z M 5.1875 1.9166666666666674  L 8.640625 4.162760416666668  L 11.53125 1.9166666666666674  L 5.1875 1.9166666666666674  Z M 12.46875 1.9166666666666674  L 15.359375 4.162760416666668  L 18.8125 1.9166666666666674  L 12.46875 1.9166666666666674  Z M 23.328125 0.6438802083333325  C 23.776041666666664 1.073133680555554  24 1.5972222222222192  24 2.2161458333333326  L 24 20.783854166666668  C 24 21.402777777777775  23.776041666666664 21.926866319444443  23.328125 22.356119791666668  C 22.880208333333336 22.78537326388889  22.333333333333336 23  21.6875 23  L 2.3125 23  C 1.6666666666666667 23  1.1197916666666667 22.78537326388889  0.671875 22.356119791666668  C 0.22395833333333331 21.926866319444443  0 21.402777777777775  0 20.783854166666668  L 0 2.2161458333333326  C 0 1.5972222222222192  0.22395833333333331 1.073133680555554  0.671875 0.6438802083333325  C 1.1197916666666667 0.21462673611111083  1.6666666666666667 0  2.3125 0  L 21.6875 0  C 22.333333333333336 0  22.880208333333336 0.21462673611111083  23.328125 0.6438802083333325  Z " fill-rule="nonzero" fill="#ffffff" stroke="none" transform="matrix(1 0 0 1 369 114 )" />
  </g>
</svg>